<?xml version="1.0" encoding="UTF-8"?>
<svg id="Layer_1" data-name="Layer 1" xmlns="http://www.w3.org/2000/svg" viewBox="0 0 1500 1500">
  <defs>
    <style>
      .cls-1 {
        fill: #fff;
      }
    </style>
  </defs>
  <path class="cls-1" d="M1500,0v1500H0V0h1500ZM673.31,610.32l-19.64,2.34-1.17-1.79c-3.28-27.41-3.8-55.05-6.76-82.48-1.3-11.99-3.93-24.03-5.23-36.02-1.32-12.1-.56-24.52-3.35-36.4-.98-1.4-23.19-.58-27.02-.73-8.97-.34-17.96-1.99-27.01-1.54-3.8.19-8.4,1.46-12.37,1.56,1.26,3.34,2.03,6.83,2.8,10.32,2.85,13.06,6.01,26.22,8.36,39.64,2.04,11.63,3.54,23.44,5.24,35.26,5.8,40.42,10.88,80.69,14.36,121.39.75,8.75,5.4,14.25-3.99,20.03-4.12,2.53-8.35,2.9-12.45,4.8-13.21,6.14-29.46,18.18-42.78,25.47-8.08,4.42-17.24,7.22-25.55,11.23,5.39,11.69,11.4,23.07,17.15,34.59,23.09,46.27,50.12,91.06,72.66,137.34,3.04,6.24,5.32,14.82,8.72,20.53,1.85,3.11,8.58,11.09,11.32,13.43,1.19,1.02,1.3,1.27,3,1.5,11.03,1.44,23.49-.7,34.51-.82,59.14-.67,117.98.1,177,.81,12.14.15,24.33.1,36.46-.36.87-3.89,2.18-8.26,2.89-12.11,5.29-28.84,4.29-59.56,7.55-89.2,3.05-27.67,5.28-55.8,8.92-83.33,1.71-12.95,4.14-25.5,5.99-38.26,1.44-9.86,1.11-20.5,2.45-30.55,2.51-18.83,7.45-37.22,8.14-56.36.39-36.81,4.18-78.93,11.45-115.31,1.93-9.66,3.22-13.86,4.32-24.18.36-3.4,3.58-24.7,2.92-25.82-5.08.1-10.29-1.42-15.31-1.63-8.99-.37-18.02,1.33-26.96,1.59-9.54.29-21.8-1.17-30.82-.07-.92.11-1.51-.04-2.21.79-.88,1.03-3.14,16.59-3.36,19.14-2.12,24.77-.54,50.89-2.26,75.74-.96,13.79-3.8,27.53-5.24,41.26-.45,4.25-.09,9.09-.76,13.49-.12.76-.24,1.43-1.09,1.69l-17.14-.65c-1.16-.37-1.5-1.61-1.74-2.66-.9-3.81-1.14-16.45-1.06-20.91.14-7.18,1.9-15.28,2.27-22.48,1.4-26.82,2.94-53.44,3.75-80.23.2-6.63.45-13.44.79-20.24.07-1.4.14-2.86-.37-4.2l-67.17.05c-.26,8.36.32,16.79.03,25.15-.66,19.03-2.79,38.06-3.81,56.94-1.01,18.67-.83,36.61-2.21,55.54-.19,2.64.68,13.33-.71,14.29l-23.3-.43c-.13-1.92.72-3.68.78-5.59,1.42-40.81,1.82-81.62,3-122.25.09-3.2.31-22.6-.79-23.66l-68.29-.42,5.11,154.74ZM569.89,666.64c1.42-2.22-3.53-13.92-4.21-16.95-5.52-24.44-6.58-51.92-10.88-76.87-.97-5.62-3.74-11.54-4.85-16.9-1.97-9.48-2.9-19.35-4.88-28.87-1.16-5.55-3.97-11.95-4.87-17.63-.96-6.04-.29-13.16-1.04-19.21-.67-5.42-2.44-11.86-3.69-17.31-.2-.85-.27-1.41-1.11-1.91-6.79,1.75-12.94,5.15-19.46,7.53-32.64,11.9-64.57,25.27-96.12,39.63-36.26,16.51-72.23,32.47-109.02,47.73-16.49,6.84-30.47,16.01-46.24,23.51-12.79,6.08-26.53,10.6-39.03,17.22-3.15,1.67-5.67,4.06-8.36,6.28,5.64,16.85,10.77,33.83,15.99,50.86,7.56,24.67,15.92,48.94,24.01,73.49,7.39,22.44,13.93,48.72,22.66,70.34,1.88,4.66,4.62,8.37,6.24,13.26,2.34,7.1,3.44,15.49,5.95,22.55,3.7,10.41,9.48,21.55,13.54,32.21,7.16,18.79,13.1,37.98,19.44,57.06l96.8-.43-60.62-174.54c.04-2.83,2.99-.78,4.74-.88,4.44-.25,9.79-1.44,14.22-1.6,2.59-.09,10.34-.71,11.53,1.28,2.42,6.52,4.84,13.09,7.47,19.53,13.66,33.39,26.83,67.5,39.53,101.47l15.74,31.51,8.94,22.56,117.43-.82c-6.54-10-9.8-21.71-15.35-32.27-15.79-30.06-27.14-61.09-40.52-92.23-3.49-8.12-9-15.93-12.74-24.01-3.96-8.56-6.44-17.83-10.35-26.4-5.75-12.59-13.75-24.59-19.8-37.06l1.22-7.45c4.64-3.02,9.6-7.8,14.04-10.71,14.9-9.76,40.36-18.52,57.25-26,5.55-2.46,10.98-5.25,16.4-7.97ZM1120.39,535.61c-12.74-6.46-26.06-11.66-39.06-17.56-24.34-11.05-48.95-21.93-73.89-31.86-12.93-5.15-26.28-9.24-39.18-14.44l-3.94,31.69c-16.03,91.95-24.95,185.25-39,277.5-2.09,13.72-3.28,27.74-4.99,41.51-2.19,17.57-6.68,36.75-7.6,53.9-.33,6.23.46,12.59,0,18.81-.35,4.69-2.53,8.65-2.95,13.48-.61,7.11.43,14.93-.02,22.12,9.62.18,19.29-.24,28.91-.03,67.11,1.45,134.52,1.48,201.69,2.31,8.71.11,22.76,1.09,30.82.01,2.36-.32,4.98-2.84,6.65-4.6,7.73-24.7,16.51-49.07,25.9-73.1,1.78-4.54,4.78-9.06,6.39-13.86,2.15-6.39,3.17-14.54,5.29-20.96,1.71-5.19,5.22-10.39,7.31-15.94,4.03-10.66,6.62-22.4,10.26-33.24,12.12-36.12,24.3-72.2,35.5-108.5,5.04-16.32,10.3-32.65,15.53-48.91-.18-2.95-5.27-6.05-7.73-7.32-14.25-7.34-29.79-12.51-44.17-19.58-7.7-3.78-14.92-8.83-22.58-12.67-17.02-8.53-35.27-13.88-52.64-21.59-.72.41-.88,1.1-1.18,1.79-4.16,9.58-5.94,24.71-10.06,34.93-3.04,7.53-7.4,13.63-10.13,22.12-10.28,31.83-19.95,64.06-31.11,95.64-3.98,11.25-10.43,23.46-12.33,35.67-.38,2.43-.22,5.42.63,7.75-5.1,3.35-11.34.84-16.77.79-3.85-.04-7.27,1.44-10.95.47-2.99-6.78,1.88-13,3.59-19,5.29-18.52,10.21-37.09,15.62-55.63,3.71-12.72,5.56-26.23,8.95-39.05,5.89-22.31,11.99-44.54,17.85-66.9,1.27-4.86,10.88-33.45,9.43-35.73Z"/>
  <g>
    <path d="M1120.39,535.61c1.45,2.28-8.16,30.87-9.43,35.73-5.86,22.36-11.96,44.59-17.85,66.9-3.39,12.82-5.23,26.33-8.95,39.05-5.42,18.54-10.33,37.11-15.62,55.63-1.71,6-6.58,12.22-3.59,19,3.68.97,7.1-.5,10.95-.47,5.44.06,11.67,2.56,16.77-.79-.84-2.33-1-5.32-.63-7.75,1.9-12.21,8.35-24.42,12.33-35.67,11.16-31.58,20.84-63.81,31.11-95.64,2.74-8.48,7.1-14.58,10.13-22.12,4.13-10.23,5.9-25.36,10.06-34.93.3-.69.46-1.38,1.18-1.79,17.38,7.71,35.62,13.06,52.64,21.59,7.66,3.84,14.89,8.89,22.58,12.67,14.38,7.06,29.92,12.23,44.17,19.58,2.46,1.27,7.55,4.36,7.73,7.32-5.23,16.26-10.49,32.59-15.53,48.91-11.2,36.3-23.38,72.38-35.5,108.5-3.64,10.84-6.24,22.58-10.26,33.24-2.1,5.55-5.6,10.74-7.31,15.94-2.11,6.43-3.14,14.58-5.29,20.96-1.62,4.8-4.62,9.32-6.39,13.86-9.4,24.03-18.17,48.4-25.9,73.1-1.67,1.77-4.28,4.29-6.65,4.6-8.06,1.08-22.11.1-30.82-.01-67.17-.84-134.58-.86-201.69-2.31-9.62-.21-19.29.22-28.91.03.45-7.19-.6-15.01.02-22.12.42-4.82,2.6-8.79,2.95-13.48.47-6.22-.32-12.59,0-18.81.92-17.15,5.42-36.33,7.6-53.9,1.71-13.76,2.9-27.78,4.99-41.51,14.05-92.25,22.97-185.55,39-277.5l3.94-31.69c12.9,5.2,26.25,9.29,39.18,14.44,24.94,9.93,49.55,20.82,73.89,31.86,13,5.9,26.33,11.1,39.06,17.56Z"/>
    <g>
      <path d="M569.89,666.64c-5.42,2.72-10.85,5.51-16.4,7.97-16.89,7.48-42.34,16.24-57.25,26-4.44,2.91-9.4,7.69-14.04,10.71l-1.22,7.45c6.04,12.47,14.05,24.47,19.8,37.06,3.91,8.57,6.4,17.84,10.35,26.4,3.74,8.08,9.25,15.89,12.74,24.01,13.38,31.14,24.73,62.16,40.52,92.23,5.55,10.56,8.81,22.27,15.35,32.27l-117.43.82-8.94-22.56-15.74-31.51c-12.71-33.96-25.87-68.08-39.53-101.47-2.63-6.43-5.05-13.01-7.47-19.53-1.19-1.99-8.95-1.37-11.53-1.28-4.43.16-9.78,1.35-14.22,1.6-1.75.1-4.7-1.94-4.74.88l60.62,174.54-96.8.43c-6.34-19.08-12.28-38.27-19.44-57.06-4.06-10.66-9.84-21.8-13.54-32.21-2.51-7.06-3.61-15.45-5.95-22.55-1.61-4.89-4.36-8.6-6.24-13.26-8.73-21.62-15.27-47.9-22.66-70.34-8.08-24.56-16.44-48.83-24.01-73.49-5.22-17.03-10.35-34.02-15.99-50.86,2.69-2.22,5.21-4.61,8.36-6.28,12.5-6.62,26.24-11.14,39.03-17.22,15.77-7.5,29.75-16.67,46.24-23.51,36.79-15.26,72.76-31.22,109.02-47.73,31.54-14.37,63.47-27.74,96.12-39.63,6.52-2.38,12.67-5.78,19.46-7.53.84.5.91,1.06,1.11,1.91,1.25,5.46,3.02,11.89,3.69,17.31.75,6.05.08,13.18,1.04,19.21.9,5.68,3.71,12.08,4.87,17.63,1.99,9.51,2.91,19.39,4.88,28.87,1.11,5.36,3.89,11.28,4.85,16.9,4.3,24.95,5.36,52.43,10.88,76.87.68,3.02,5.64,14.73,4.21,16.95Z"/>
      <g>
        <path d="M673.31,610.32l-5.11-154.74,68.29.42c1.1,1.06.88,20.46.79,23.66-1.18,40.63-1.58,81.44-3,122.25-.07,1.91-.91,3.67-.78,5.59l23.3.43c1.39-.96.52-11.65.71-14.29,1.38-18.93,1.2-36.87,2.21-55.54,1.02-18.88,3.15-37.91,3.81-56.94.29-8.36-.28-16.8-.03-25.15l67.17-.05c.51,1.33.44,2.8.37,4.2-.34,6.79-.59,13.6-.79,20.24-.81,26.79-2.35,53.42-3.75,80.23-.38,7.2-2.13,15.29-2.27,22.48-.09,4.46.16,17.1,1.06,20.91.25,1.05.58,2.29,1.74,2.66l17.14.65c.85-.26.97-.93,1.09-1.69.67-4.4.32-9.24.76-13.49,1.44-13.73,4.28-27.47,5.24-41.26,1.72-24.84.14-50.97,2.26-75.74.22-2.55,2.48-18.11,3.36-19.14.71-.83,1.29-.67,2.21-.79,9.02-1.1,21.28.36,30.82.07,8.94-.27,17.97-1.97,26.96-1.59,5.02.21,10.23,1.73,15.31,1.63.66,1.12-2.56,22.42-2.92,25.82-1.1,10.32-2.39,14.52-4.32,24.18-7.26,36.38-11.06,78.5-11.45,115.31-.68,19.14-5.63,37.53-8.14,56.36-1.34,10.05-1.01,20.69-2.45,30.55-1.86,12.75-4.28,25.31-5.99,38.26-3.64,27.53-5.87,55.66-8.92,83.33-3.26,29.63-2.26,60.35-7.55,89.2-.71,3.85-2.02,8.22-2.89,12.11-12.12.45-24.32.5-36.46.36-59.02-.71-117.86-1.48-177-.81-11.02.13-23.48,2.26-34.51.82-1.71-.22-1.82-.48-3-1.5-2.73-2.35-9.47-10.32-11.32-13.43-3.4-5.71-5.68-14.3-8.72-20.53-22.54-46.28-49.57-91.07-72.66-137.34-5.74-11.51-11.76-22.89-17.15-34.59,8.3-4.01,17.46-6.81,25.55-11.23,13.32-7.29,29.57-19.33,42.78-25.47,4.09-1.9,8.33-2.27,12.45-4.8,9.39-5.78,4.74-11.28,3.99-20.03-3.49-40.7-8.56-80.96-14.36-121.39-1.7-11.82-3.2-23.63-5.24-35.26-2.35-13.41-5.51-26.57-8.36-39.64-.76-3.49-1.53-6.98-2.8-10.32,3.97-.1,8.57-1.37,12.37-1.56,9.05-.45,18.04,1.2,27.01,1.54,3.84.15,26.04-.67,27.02.73,2.8,11.87,2.04,24.29,3.35,36.4,1.3,11.99,3.93,24.02,5.23,36.02,2.97,27.43,3.48,55.07,6.76,82.48l1.17,1.79,19.64-2.34ZM728.35,698.9c.79,1.23,24.71,3.81,26.2,2.77,1.53-9.81,4.33-19.72,3.34-29.69-1.35-2.23-24.46-4.66-26.65-3.37-.81.48-1.3,2.11-1.44,3.06l-1.45,27.23ZM838.36,713.87l11.09-22.39-1.25-1.81c-2.93-.62-18.28-8.16-19.67-7.81-3.28.82-11.16,21.01-14.77,24.28.07,1.29,23.2,8.56,24.6,7.74ZM655.19,700.07c-1.2-1.22-2.49-2.16-3.41-3.75l-1.77.52-14.74,16.01c-.1,3.64,16,18.82,16.5,24.39,1.96,1.45,19.49-15.11,21.68-17.73.23-1.27-7.01-6.39-8.45-7.86-3.45-3.53-6.21-7.94-9.81-11.59ZM848.51,759.26c3.38-3.36,7.61-5.53,11.79-9.58s11.53-8.67,3.33-14.68c-3.5-2.56-21.87-7.41-27.22-8.78-33.46-8.54-77.85-15.13-112.29-16.71-21.47-.98-31.74,11.31-46.6,24.26-17.51,15.25-33.68,32.62-50.5,48.87-5.42,5.23-16.79,10.28-7.16,19.14,3.75,3.45,7.52,2.59,11.81,3.94,35.77,11.25,74.65,15.65,111.96,18.54,12.51.97,19.13,4.18,30.61-3.15,9.48-6.05,17.49-14.27,26.01-21.24,16.22-13.26,33.6-26.02,48.27-40.61ZM848.74,820.24c.49-.49,3.53-4,3.65-4.25,1.81-3.84-6.96-10.3-9.39-13.11-3.29-3.8-2.67-7.67-9.7-2.95-1.09.73-8.74,8.4-8.94,9.11-.24.87-.24,1.67.26,2.45,2.44,1.58,11.77,15.32,12.88,15.69.96.32,1.61.08,2.48-.31,1.17-.54,7.66-5.52,8.76-6.62ZM698.19,840.05c-4.05-.31-20.68-8.2-23.23-6.47-.97.66-5.85,19.44-7.89,22.14-.32.97-.63,2.14,0,3.06.56.81,16.84,6.86,18.39,7.16,1.16.22,1.82.56,3.03-.04,2.81-1.39,5.9-14.15,7.13-17.65.88-2.52,3.55-4.79,2.56-8.2ZM767,833.57c-4.26.54-6.6,2.03-10.1,3.22-1.69.57-6.21.45-6.81,2.19-.31,1.19-.11,2.36,0,3.56.37,4.46,2.05,14.27,3.09,18.67,1.82,7.74,10.64,4.28,16.31,2.41,11.85-3.91,10.46-5.41,7.92-16.89-.37-1.68-3.29-12.18-3.76-12.73-1.05-1.24-4.88-.65-6.64-.42Z"/>
        <path class="cls-1" d="M848.51,759.26c-14.67,14.59-32.04,27.35-48.27,40.61-8.52,6.97-16.53,15.19-26.01,21.24-11.48,7.33-18.1,4.12-30.61,3.15-37.31-2.89-76.19-7.29-111.96-18.54-4.29-1.35-8.06-.49-11.81-3.94-9.63-8.87,1.75-13.91,7.16-19.14,16.82-16.25,32.99-33.62,50.5-48.87,14.87-12.95,25.14-25.24,46.6-24.26,34.44,1.58,78.83,8.17,112.29,16.71,5.36,1.37,23.72,6.21,27.22,8.78,8.2,6.01.92,10.55-3.33,14.68s-8.41,6.22-11.79,9.58ZM837.75,744c-5.74-.89-11.2-2.81-16.96-3.66-31.63-4.7-57.74-8.36-89.88-6.81-13.05.63-16.03-2.53-27.64,5.36s-25.72,21.04-36.15,30.58c-7.27,6.65-14.06,14.01-21.35,20.66-.08,2.33,25.3,4.52,28.02,4.97,17.13,2.79,33.88,6.83,50.87,9.88,10.19,1.83,20.32,4.08,30.82,3.37,26.27-17.35,50.42-37.46,74.42-57.57,1.07-.89,8.89-5.63,7.85-6.77Z"/>
        <path class="cls-1" d="M728.35,698.9l1.45-27.23c.14-.94.63-2.58,1.44-3.06,2.19-1.29,25.3,1.14,26.65,3.37.99,9.96-1.81,19.88-3.34,29.69-1.49,1.04-25.41-1.54-26.2-2.77Z"/>
        <path class="cls-1" d="M655.19,700.07c3.6,3.65,6.35,8.06,9.81,11.59,1.44,1.47,8.68,6.59,8.45,7.86-2.19,2.61-19.72,19.18-21.68,17.73-.5-5.57-16.6-20.75-16.5-24.39l14.74-16.01,1.77-.52c.93,1.59,2.21,2.54,3.41,3.75Z"/>
        <path class="cls-1" d="M767,833.57c1.76-.22,5.59-.81,6.64.42.47.56,3.39,11.05,3.76,12.73,2.54,11.47,3.93,12.97-7.92,16.89-5.68,1.88-14.49,5.33-16.31-2.41-1.04-4.41-2.71-14.22-3.09-18.67-.1-1.19-.3-2.37,0-3.56.61-1.74,5.12-1.62,6.81-2.19,3.5-1.18,5.84-2.68,10.1-3.22Z"/>
        <path class="cls-1" d="M838.36,713.87c-1.4.82-24.52-6.45-24.6-7.74,3.61-3.27,11.49-23.45,14.77-24.28,1.39-.35,16.74,7.2,19.67,7.81l1.25,1.81-11.09,22.39Z"/>
        <path class="cls-1" d="M698.19,840.05c.99,3.41-1.68,5.68-2.56,8.2-1.23,3.5-4.33,16.26-7.13,17.65-1.21.6-1.87.26-3.03.04-1.56-.3-17.83-6.35-18.39-7.16-.63-.92-.32-2.09,0-3.06,2.04-2.7,6.92-21.48,7.89-22.14,2.55-1.73,19.18,6.16,23.23,6.47Z"/>
        <path class="cls-1" d="M848.74,820.24c-1.1,1.1-7.59,6.09-8.76,6.62-.86.39-1.52.63-2.48.31-1.11-.37-10.44-14.11-12.88-15.69-.5-.78-.51-1.58-.26-2.45.2-.72,7.85-8.38,8.94-9.11,7.03-4.72,6.4-.85,9.7,2.95,2.43,2.81,11.2,9.27,9.39,13.11-.12.25-3.16,3.76-3.65,4.25Z"/>
        <path d="M837.75,744c1.04,1.14-6.78,5.87-7.85,6.77-24,20.12-48.15,40.23-74.42,57.57-10.5.71-20.63-1.54-30.82-3.37-16.99-3.05-33.74-7.1-50.87-9.88-2.72-.44-28.09-2.64-28.02-4.97,7.29-6.65,14.08-14.01,21.35-20.66,10.43-9.54,24.68-22.79,36.15-30.58s14.59-4.73,27.64-5.36c32.14-1.55,58.25,2.12,89.88,6.81,5.77.86,11.22,2.77,16.96,3.66ZM741.6,746.47c-7.81.32-19.46.36-26.39,3.61-4.43,2.07-8.11,6.19-12.22,8.78-7.02,4.41-24.95,13.4-28.76,19.99-1.3,2.25-1.07,2.47,1.16,3.4,3.75,1.56,15.13,4.06,19.69,5.06,16.44,3.6,32.44,4.73,49.33,3.98,11.43-.5,14.35-.9,23.84-6.91,8.46-5.36,18.42-13.79,26.02-20.48,1.57-1.38,11.42-10.47,11.24-11.24-9.34-5.72-21.91-5.1-32.62-5.65-10.45-.53-20.8-.95-31.29-.52Z"/>
        <path class="cls-1" d="M741.6,746.47c10.49-.43,20.84-.01,31.29.52,10.71.55,23.28-.07,32.62,5.65.18.78-9.67,9.86-11.24,11.24-7.6,6.69-17.56,15.13-26.02,20.48-9.49,6.01-12.41,6.41-23.84,6.91-16.89.74-32.89-.38-49.33-3.98-4.56-1-15.94-3.49-19.69-5.06-2.23-.93-2.46-1.15-1.16-3.4,3.81-6.59,21.74-15.58,28.76-19.99,4.11-2.58,7.8-6.7,12.22-8.78,6.93-3.25,18.58-3.29,26.39-3.61ZM767.25,765.76l-31.08-1.46c-.78.12-12.04,5.18-12.96,5.76-.76.48-1.32-.05-.96,1.68l27.22,3.6c3.28-1.29,5.77-3.75,8.88-5.37,2.88-1.5,6.79-1.9,8.9-4.21Z"/>
        <path d="M767.25,765.76c-2.12,2.31-6.02,2.71-8.9,4.21-3.11,1.62-5.6,4.09-8.88,5.37l-27.22-3.6c-.36-1.74.21-1.2.96-1.68.92-.59,12.18-5.64,12.96-5.76l31.08,1.46Z"/>
      </g>
    </g>
  </g>
</svg>