<?xml version="1.0" encoding="UTF-8"?>
<svg id="Layer_1" data-name="Layer 1" xmlns="http://www.w3.org/2000/svg" viewBox="0 0 1500 1500">
  <defs>
    <style>
      .cls-1 {
        fill: #febb58;
      }

      .cls-2 {
        fill: #77c5d8;
      }

      .cls-3 {
        fill: #feb850;
      }

      .cls-4 {
        fill: #cb5e3b;
      }

      .cls-5 {
        fill: #feb954;
      }

      .cls-6 {
        fill: #fefdfb;
      }

      .cls-7 {
        fill: #fefdfa;
      }

      .cls-8 {
        fill: #fefcf9;
      }

      .cls-9 {
        fill: #fefefe;
      }

      .cls-10 {
        fill: #fefcf8;
      }

      .cls-11 {
        fill: #fefcfa;
      }
    </style>
  </defs>
  <path class="cls-9" d="M1500,0v1500H0V0h1500ZM643.21,647.23l-16.85-172.53c-.86-1.27-9.14-.66-11.28-.71-16.37-.38-33.05-2.95-49.5-2.28-3.97.16-8.89,1.57-13.1,1.55.61,4.22,1.98,8.29,2.92,12.44,1.34,5.93,3.32,11.07,4.49,16.51,4.69,21.7,7.54,44.21,10.49,66.01,6.04,44.76,11.17,89.13,15.91,134.08.92,8.7,5.87,15.4-4.06,21.6-4.51,2.82-9.42,3.07-13.78,4.96-6.99,3.04-17.48,11.57-24.73,15.76-14.12,8.16-29.51,15.74-44.19,22.54-1.47.68-6.83,1.82-7.02,2.75l18.87,38.08c22.33,45.07,48.52,88.84,70.88,133.83,6.12,12.32,11.36,25.06,17.29,37.45,3.55,7.41,9.51,12.19,14.33,18.67l2.65,1.1c22.73.67,45.61-.68,68.22-.82,69.1-.44,138.19.76,207.27.75,2.31-14.81,6.61-30.4,7.52-45.35,1.21-19.98,1.03-38.27,3-58.5,4.63-47.43,8.37-95.16,17.15-141.84.03-26,7.49-50.85,9.69-76.4,1.15-13.37,1.58-27.03,1.92-40.63.64-25.47,5.02-53.55,8.76-79.34,2.72-18.8,6.63-37.29,9.07-56.18,1.18-9.15,2.45-18.33,3.63-27.48-5.53.21-11.4-1.29-16.84-1.54-16.7-.78-33.57,2.2-50.22,2.32-5.94.04-11.72-.57-17.61,0-.59,8.15-3.21,16.21-3.77,24.35-1.99,28.74-.63,59.35-2.55,88.36-.81,12.15-3.66,24.07-4.95,36.14-.52,4.86.02,12.08-.76,16.49-.15.83-.3,1.48-1.18,1.79l-19.33-.76c-1.36-.46-1.61-4.17-1.76-5.74-1.11-11.31-.14-18.81.53-29.79,2.51-41.74,4.21-83.56,6-125.24.08-1.87.28-3.85-.33-5.66l-74.54.87c-1.67,1.43,0,22.04-.05,25.82-.02,1.77-.74,3.41-.81,5.19-1.47,37.66-3.35,75.56-5.25,113.25-.19,3.78.88,21.18-.9,22.73-1.73.75-3.55.84-5.41.97-2.52.17-19.63-.51-20.33-1.49,1.26-12.86-.29-26.41.4-39.45.32-6.07,1.98-12.7,2.31-18.69,1.67-30.24.11-61.83.73-92.27.1-5.09,1.92-10.75-.09-16.05l-77.14-.83c.22,1.38.75,2.64.79,4.08,1.32,40.35,1.38,81.16,3.72,121.53.69,11.95,2.55,24.1,2.98,36.02.51,13.89-2.48,9.33-13.85,10.13-1.54.11-8.96,1.74-9.35,1.47ZM1131.56,797.25h-29.24c-3.7-6.76,2-15.14,3.92-21.58,4.39-14.71,6.98-30.99,11.21-45.78,2.41-8.41,5.59-15.67,7.91-24.34,10.27-38.5,19.59-77.2,29.71-115.77,3.84-14.62,9.54-28.83,12.09-43.77-1.16,0-2.25-.31-3.28-.84-18.58-9.44-37.8-17.75-56.71-26.52-8.97-4.16-15.88-6.22-24.7-9.79-15.3-6.18-30.24-13.55-45.55-19.68-15.39-6.16-31.28-11.56-47.01-16.71-2.45,11.43-2.42,23.25-4.23,34.83-1.34,8.57-4.4,17.97-5.85,26.4-4.91,28.6-6.98,57.87-11.11,86.38-9.78,67.48-16.77,135.48-27.77,202.47-2.49,15.14-2.86,26.83-3.93,41.82-1.71,23.81-9.39,49.09-11.23,72.77-.72,9.22.23,20.2-.75,29.25-.43,3.93-2.46,8.41-2.99,12.76-.78,6.34.15,12.52.02,18.77-.05,2.48-2.38,6.44,1.1,7.09,100.65.92,201.36,2.19,302.15,2.3,2.97.12,4.85-2.68,7.43-3.82,9.47-29.27,19.51-58.42,30.75-86.98,1.96-4.99,5.34-9.93,7.15-15.34,2.66-7.95,3.84-17.71,6.67-25.57,4.43-12.28,10.32-23.93,14.64-37.1,10.17-30.93,19.94-61.93,30.01-92.97,4.68-14.42,10.74-28.69,15.16-43.33,4.83-15.96,8.76-32.69,13.46-48.78,1.32-4.52,6.63-14.76,4.9-18.72-.72-1.65-6.64-5.53-8.5-6.49-15.78-8.1-32.87-13.79-48.92-21.55-8.36-4.04-16.22-9.55-24.45-13.78-20.4-10.5-42.01-17.09-62.96-26.26l-2.99-.32c-1.58,5.65-2.45,11.63-4.12,17.25-2.22,7.48-5.11,17.15-7.89,24.36-3.39,8.83-8.68,16.74-11.62,25.87-11.95,37.11-23.21,74.6-36.34,111.4-4.64,13-12.15,28.14-14.23,42.01-.49,3.25,2.03,9.26-1.92,10.08ZM269.87,1004.25h109.82c3.44,0-2.43-10.26-2.84-11.4-15.08-41.69-28.82-83.48-43.48-125.24-2.54-7.25-3.46-14.79-5.79-21.21-.9-2.48-3.55-5.73-4.72-8.78-1.69-4.4-2.44-10.42-3.89-14.86-.94-2.88-7.81-18.04-6.37-19.51,11.09-.15,22.24-1.66,33.26-.65,4.95,9.17,7.64,19.89,13.05,28.95,12.3,33.96,25.04,68.03,38.76,101.47,6.54,15.94,14.04,29.21,20.78,44.46,1.73,3.91,8.15,24.06,9.92,25.33l133.86-.81c.65-.58-4.69-9.28-5.38-10.73-4.22-8.89-7.2-18.37-11.99-27-18.21-32.82-30.74-68.97-45.58-103.65-4.08-9.54-10.01-18.23-14.39-27.61-4.63-9.93-7.54-20.74-12.06-30.68-6.23-13.71-15.11-27.42-22.25-40.74-.04-6.47-1.53-8.5,3.91-12.5,23.56-17.35,50.23-26.87,76.78-38.68,2.79-1.24,19.95-9.08,20.38-10.4.31-6.79-3.6-13.37-4.98-19.54-3.98-17.82-3.92-35.94-7.26-53.49-2.16-11.33-3.18-22.54-5.09-33.91-1.51-8.99-4.8-19.75-6.8-29.2-3.02-14.29-8.15-31.53-10.06-45.44-1.11-8.07-.41-17.1-1.78-25.22-.86-5.09-3.24-10.34-4.09-15.48-4.67-.79-15.8,5.42-20.59,7.15-47.72,17.2-94.49,36.98-140.43,58.25-25.87,11.98-51.05,24.93-77.49,35.72-12.83,5.23-25.29,9.05-37.95,15.28-9.59,4.72-18.94,11.09-28.47,15.77-15.94,7.81-32.91,14.5-49.03,21.45-.43.19-7.2,4.68-7.68,5.09-.75.65-.61,2.52-2.26,3.04,3.69,8.52,5.38,17.62,8.02,26.4,11.7,38.96,25.01,76.91,37.51,115.48,8.02,24.74,15.34,51.84,24.41,76.08,2.3,6.16,6.42,12.23,8.39,17.86,2.75,7.89,3.96,18.11,6.78,26.22,1.85,5.32,5.23,10.77,7.25,16,11.03,28.51,22.16,57.12,29.84,86.77Z"/>
  <g>
    <path class="cls-2" d="M1131.56,797.25c3.95-.82,1.43-6.83,1.92-10.08,2.08-13.87,9.59-29.01,14.23-42.01,13.13-36.79,24.39-74.28,36.34-111.4,2.94-9.13,8.23-17.04,11.62-25.87,2.77-7.21,5.66-16.89,7.89-24.36,1.67-5.62,2.54-11.6,4.12-17.25l2.99.32c20.95,9.17,42.57,15.76,62.96,26.26,8.23,4.24,16.1,9.74,24.45,13.78,16.05,7.77,33.15,13.45,48.92,21.55,1.86.96,7.78,4.84,8.5,6.49,1.73,3.96-3.58,14.2-4.9,18.72-4.7,16.09-8.63,32.83-13.46,48.78-4.43,14.64-10.49,28.91-15.16,43.33-10.07,31.04-19.85,62.04-30.01,92.97-4.33,13.16-10.22,24.82-14.64,37.1-2.83,7.86-4.01,17.62-6.67,25.57-1.81,5.42-5.19,10.35-7.15,15.34-11.25,28.56-21.28,57.71-30.75,86.98-2.58,1.14-4.46,3.93-7.43,3.82-100.78-.11-201.5-1.38-302.15-2.3-3.47-.65-1.15-4.61-1.1-7.09.13-6.25-.8-12.43-.02-18.77.53-4.35,2.56-8.83,2.99-12.76.98-9.05.04-20.03.75-29.25,1.84-23.68,9.52-48.95,11.23-72.77,1.08-14.98,1.45-26.68,3.93-41.82,11-66.98,17.99-134.99,27.77-202.47,4.13-28.51,6.21-57.78,11.11-86.38,1.45-8.43,4.51-17.83,5.85-26.4,1.81-11.58,1.78-23.4,4.23-34.83,15.72,5.15,31.61,10.56,47.01,16.71,15.31,6.12,30.25,13.5,45.55,19.68,8.82,3.56,15.73,5.62,24.7,9.79,18.91,8.77,38.13,17.08,56.71,26.52,1.03.52,2.12.84,3.28.84-2.55,14.93-8.25,29.15-12.09,43.77-10.12,38.57-19.44,77.28-29.71,115.77-2.31,8.67-5.5,15.93-7.91,24.34-4.24,14.79-6.83,31.07-11.21,45.78-1.92,6.43-7.62,14.82-3.92,21.58h29.24Z"/>
    <g>
      <path class="cls-4" d="M269.87,1004.25c-7.68-29.65-18.81-58.26-29.84-86.77-2.02-5.22-5.4-10.67-7.25-16-2.82-8.1-4.03-18.33-6.78-26.22-1.96-5.63-6.08-11.7-8.39-17.86-9.07-24.25-16.39-51.34-24.41-76.08-12.5-38.57-25.81-76.52-37.51-115.48-2.63-8.78-4.32-17.88-8.02-26.4,1.65-.52,1.51-2.39,2.26-3.04.48-.41,7.25-4.9,7.68-5.09,16.12-6.95,33.09-13.64,49.03-21.45,9.53-4.67,18.88-11.04,28.47-15.77,12.66-6.23,25.11-10.05,37.95-15.28,26.45-10.78,51.62-23.74,77.49-35.72,45.95-21.27,92.71-41.05,140.43-58.25,4.79-1.73,15.92-7.94,20.59-7.15.86,5.15,3.24,10.4,4.09,15.48,1.37,8.12.67,17.15,1.78,25.22,1.91,13.91,7.03,31.15,10.06,45.44,2,9.45,5.29,20.21,6.8,29.2,1.91,11.37,2.93,22.58,5.09,33.91,3.34,17.54,3.28,35.67,7.26,53.49,1.38,6.18,5.29,12.75,4.98,19.54-.43,1.32-17.6,9.16-20.38,10.4-26.55,11.81-53.22,21.34-76.78,38.68-5.44,4-3.95,6.04-3.91,12.5,7.13,13.32,16.01,27.03,22.25,40.74,4.52,9.95,7.43,20.75,12.06,30.68,4.37,9.38,10.3,18.07,14.39,27.61,14.84,34.67,27.37,70.82,45.58,103.65,4.79,8.63,7.77,18.11,11.99,27,.69,1.45,6.04,10.15,5.38,10.73l-133.86.81c-1.76-1.27-8.19-21.41-9.92-25.33-6.74-15.25-14.24-28.52-20.78-44.46-13.71-33.44-26.46-67.51-38.76-101.47-5.4-9.05-8.1-19.77-13.05-28.95-11.02-1.01-22.17.5-33.26.65-1.44,1.47,5.43,16.63,6.37,19.51,1.45,4.44,2.2,10.46,3.89,14.86,1.17,3.05,3.82,6.29,4.72,8.78,2.33,6.42,3.24,13.96,5.79,21.21,14.66,41.77,28.4,83.56,43.48,125.24.41,1.14,6.29,11.4,2.84,11.4h-109.82Z"/>
      <g>
        <path class="cls-3" d="M643.21,647.23c.39.27,7.8-1.37,9.35-1.47,11.37-.79,14.36,3.77,13.85-10.13-.44-11.92-2.29-24.06-2.98-36.02-2.34-40.37-2.4-81.18-3.72-121.53-.05-1.44-.57-2.7-.79-4.08l77.14.83c2.01,5.3.19,10.97.09,16.05-.61,30.45.94,62.03-.73,92.27-.33,5.99-1.99,12.62-2.31,18.69-.69,13.04.86,26.6-.4,39.45.7.97,17.81,1.65,20.33,1.49,1.86-.12,3.68-.22,5.41-.97,1.79-1.55.71-18.95.9-22.73,1.89-37.69,3.77-75.59,5.25-113.25.07-1.77.79-3.42.81-5.19.05-3.79-1.63-24.4.05-25.82l74.54-.87c.61,1.81.41,3.79.33,5.66-1.78,41.69-3.48,83.5-6,125.24-.66,10.98-1.64,18.49-.53,29.79.15,1.57.4,5.28,1.76,5.74l19.33.76c.88-.31,1.04-.96,1.18-1.79.77-4.41.23-11.63.76-16.49,1.29-12.07,4.14-23.99,4.95-36.14,1.93-29,.56-59.62,2.55-88.36.56-8.14,3.19-16.19,3.77-24.35,5.9-.57,11.67.04,17.61,0,16.65-.13,33.52-3.11,50.22-2.32,5.44.26,11.31,1.75,16.84,1.54-1.18,9.15-2.45,18.32-3.63,27.48-2.44,18.89-6.34,37.38-9.07,56.18-3.74,25.78-8.12,53.87-8.76,79.34-.34,13.59-.77,27.25-1.92,40.63-2.2,25.55-9.66,50.4-9.69,76.4-8.78,46.68-12.52,94.41-17.15,141.84-1.97,20.23-1.79,38.52-3,58.5-.91,14.95-5.21,30.54-7.52,45.35-69.08,0-138.17-1.2-207.27-.75-22.61.15-45.49,1.49-68.22.82l-2.65-1.1c-4.81-6.48-10.78-11.26-14.33-18.67-5.94-12.39-11.17-25.13-17.29-37.45-22.37-44.99-48.55-88.76-70.88-133.83l-18.87-38.08c.19-.93,5.55-2.06,7.02-2.75,14.68-6.8,30.07-14.37,44.19-22.54,7.24-4.19,17.74-12.72,24.73-15.76,4.36-1.9,9.27-2.14,13.78-4.96,9.92-6.2,4.98-12.9,4.06-21.6-4.74-44.95-9.87-89.32-15.91-134.08-2.94-21.8-5.8-44.31-10.49-66.01-1.17-5.44-3.15-10.57-4.49-16.51-.94-4.15-2.31-8.22-2.92-12.44,4.21.02,9.13-1.38,13.1-1.55,16.46-.67,33.13,1.9,49.5,2.28,2.14.05,10.42-.56,11.28.71l16.85,172.53ZM726.49,743.15c.27.42,5.26,1.31,6.37,1.5,4.51.77,14.49,2.11,18.77,2.07,1.06-.01,3.89-.41,4.41-1.17l4.1-28.96c.05-1.36-.2-3.08-1.17-4.08-2.2-2.28-28.77-4.8-30.26-2.93l-2.23,33.57ZM848.48,759.66c1.71-4.04,3.64-8.05,5.7-11.93,1.87-3.51,7.66-10.62,6.3-14.51l-23.37-9.39-15.45,27.17c.39,1.34,9.04,4.11,11.02,4.78,2.22.74,14.7,4.58,15.81,3.88ZM641.69,785.25c1.82,1.36,14.12-9.36,16.13-11.23,1.36-1.26,7.87-7.45,7.88-8.64l-24.36-25.11-2.6,1.16c-2.69,5.24-11.71,10.47-14.33,14.91-1.67,2.83-.37,4.07,1.23,6.35,3.85,5.49,9.68,11.12,13.38,16.62,1.15,1.71,2.2,3.93,2.68,5.95ZM876.8,796.24c3.72-3.94,4.57-8.4.55-12.41-3.53-3.52-20.75-7.9-26.53-9.46-31.59-8.48-66.13-13.53-98.58-16.87-12.81-1.32-32.79-4.47-44.75-2.03s-26.11,16.57-35.46,24.53c-20.62,17.56-39.24,37.78-58.83,56.63-3.2,3.08-9.32,5.73-10.34,10.67-1.14,5.51,3.42,10.66,8.41,12.24,37.54,11.94,74.91,15.91,113.91,20.28,11.32,1.27,23.08,3.34,34.56,3.66,7.24.2,13.19-2.33,19.21-6.26,14.97-9.78,29.21-24.32,43-35.73,13.08-10.81,26.19-20.57,38.23-32.25,4.45-4.32,11.64-7.75,16.6-13.01ZM846.89,852.13c-1.15.19-2.93,1.4-3.94,2.13-1.78,1.27-7.3,6.49-8.99,8.25-.83.85-1.84,1.96-1.72,3.26.27,2.89,12.86,14.59,14.41,18.54.63.65,1.38.76,2.23.71,2.76-.16,15.71-11.59,15.46-14.58-.24-2.79-7.62-8.83-9.75-11.32-2.45-2.88-3.03-7.75-7.7-6.98ZM693.29,899.36l-26.09-8.33c.26,4.91-10.55,26.41-8.18,29.13l21.46,8.23c2.38.34,4.27-3.07,5.2-5,1.95-4.06,6.01-15.35,7.22-19.77.31-1.12.98-3.32.4-4.25ZM772.71,891.18c-5.12.38-9.6,2.56-14.06,3.98-2.67.85-6.57-.06-8.18,3.13l3.84,25.16c.38,1.46,1.9,3.72,3.34,4.15,3.96,1.18,24.56-4.67,25.6-8.64.31-1.2-2.51-13.91-3.1-16.12s-3.17-11.25-4.82-11.73c-1.01-.29-1.71,0-2.61.06Z"/>
        <path class="cls-6" d="M876.8,796.24c-4.96,5.26-12.15,8.7-16.6,13.01-12.05,11.68-25.15,21.44-38.23,32.25-13.8,11.4-28.04,25.95-43,35.73-6.02,3.93-11.98,6.46-19.21,6.26-11.48-.32-23.25-2.39-34.56-3.66-39-4.38-76.37-8.35-113.91-20.28-4.99-1.59-9.55-6.73-8.41-12.24,1.02-4.94,7.13-7.58,10.34-10.67,19.6-18.86,38.21-39.07,58.83-56.63,9.34-7.96,23.43-22.07,35.46-24.53s31.94.71,44.75,2.03c32.45,3.34,66.99,8.39,98.58,16.87,5.78,1.55,23,5.94,26.53,9.46,4.02,4.01,3.17,8.47-.55,12.41ZM847.82,792.76c-14.51-4.21-29.48-4.81-44.39-6.97-24.65-3.56-42.43-6.43-67.67-5.63-7.45.24-18.22-.16-25.16.93-10.84,1.7-26.86,18.91-35.27,26.21-10.87,9.44-21.35,18.08-31.8,28.18-1.36,1.31-9.25,8.43-7.85,9.77,4.19-.77,7.89,1.56,11.69,2.18,5.74.94,12.15.74,17.84,1.65,21.9,3.51,43.08,9.41,64.75,13.22,8.44,1.48,18.06,1.69,26.63,1.55,9.66-6.77,19.79-13.2,29.25-20.23,17.38-12.92,33.73-27.37,50.39-41.09,3.07-2.53,7.67-5.02,10.34-7.65.68-.67,1.62-.67,1.25-2.11Z"/>
        <path class="cls-8" d="M726.49,743.15l2.23-33.57c1.5-1.87,28.06.65,30.26,2.93.96,1,1.22,2.72,1.17,4.08l-4.1,28.96c-.53.76-3.35,1.16-4.41,1.17-4.28.05-14.26-1.3-18.77-2.07-1.11-.19-6.1-1.07-6.37-1.5Z"/>
        <path class="cls-11" d="M641.69,785.25c-.48-2.02-1.53-4.24-2.68-5.95-3.7-5.5-9.52-11.13-13.38-16.62-1.6-2.28-2.9-3.52-1.23-6.35,2.61-4.43,11.64-9.67,14.33-14.91l2.6-1.16,24.36,25.11c0,1.19-6.52,7.38-7.88,8.64-2.01,1.87-14.31,12.59-16.13,11.23Z"/>
        <path class="cls-8" d="M772.71,891.18c.9-.07,1.61-.35,2.61-.06,1.65.48,4.21,9.49,4.82,11.73s3.41,14.92,3.1,16.12c-1.03,3.97-21.63,9.82-25.6,8.64-1.45-.43-2.96-2.69-3.34-4.15l-3.84-25.16c1.61-3.19,5.51-2.28,8.18-3.13,4.46-1.42,8.94-3.6,14.06-3.98Z"/>
        <path class="cls-8" d="M848.48,759.66c-1.11.71-13.59-3.13-15.81-3.88-1.98-.66-10.63-3.43-11.02-4.78l15.45-27.17,23.37,9.39c1.36,3.89-4.43,11-6.3,14.51-2.06,3.87-3.99,7.89-5.7,11.93Z"/>
        <path class="cls-8" d="M693.29,899.36c.58.94-.09,3.14-.4,4.25-1.21,4.42-5.27,15.71-7.22,19.77-.93,1.93-2.82,5.34-5.2,5l-21.46-8.23c-2.37-2.73,8.45-24.22,8.18-29.13l26.09,8.33Z"/>
        <path class="cls-10" d="M846.89,852.13c4.67-.78,5.24,4.1,7.7,6.98,2.13,2.49,9.51,8.53,9.75,11.32.25,2.99-12.7,14.42-15.46,14.58-.86.05-1.61-.06-2.23-.71-1.55-3.96-14.14-15.65-14.41-18.54-.12-1.3.9-2.41,1.72-3.26,1.7-1.75,7.22-6.98,8.99-8.25,1.01-.72,2.78-1.93,3.94-2.13Z"/>
        <path class="cls-5" d="M847.82,792.76c.37,1.44-.57,1.44-1.25,2.11-2.67,2.63-7.28,5.13-10.34,7.65-16.66,13.72-33.01,28.17-50.39,41.09-9.46,7.03-19.59,13.46-29.25,20.23-8.56.14-18.18-.06-26.63-1.55-21.66-3.81-42.85-9.7-64.75-13.22-5.7-.91-12.1-.71-17.84-1.65-3.8-.62-7.5-2.95-11.69-2.18-1.4-1.33,6.49-8.45,7.85-9.77,10.45-10.1,20.93-18.74,31.8-28.18,8.41-7.3,24.43-24.51,35.27-26.21,6.94-1.09,17.71-.69,25.16-.93,25.24-.8,43.02,2.07,67.67,5.63,14.91,2.15,29.88,2.75,44.39,6.97ZM745.71,795.2c-9.14.27-25.72.9-33.75,4.49-4.46,2-8.72,6.62-13.08,9.42-7.19,4.61-14.94,8.31-21.89,13.35-2.3,1.66-11.45,8.2-10.56,11.11l1.8,1.24c28.26,8.62,57.4,12.63,87,9.68,12.39-1.23,42.23-27.8,52.12-37.11,1.55-1.46,3.72-3.25,4.49-5.25-.65-2.77-20.3-5.29-23.62-5.63-13.34-1.37-29.17-1.7-42.52-1.3Z"/>
        <path class="cls-7" d="M745.71,795.2c13.35-.4,29.18-.06,42.52,1.3,3.32.34,22.97,2.86,23.62,5.63-.76,2-2.94,3.79-4.49,5.25-9.88,9.31-39.73,35.87-52.12,37.11-29.61,2.95-58.74-1.07-87-9.68l-1.8-1.24c-.89-2.91,8.26-9.45,10.56-11.11,6.96-5.03,14.7-8.73,21.89-13.35,4.36-2.8,8.61-7.42,13.08-9.42,8.03-3.59,24.61-4.22,33.75-4.49ZM769.86,816.76c-7.81-1.13-15.73-.47-23.6-.77-2.64-.1-6.18-1.47-8.82-1.31-1.61.1-14.33,5.38-16.08,6.42-1.01.6-2.02.9-1.72,2.39l30.27,3.71c3.1-.33,8.06-4.49,11.2-6.08,2.89-1.47,7.12-1.57,8.75-4.36Z"/>
        <path class="cls-1" d="M769.86,816.76c-1.63,2.79-5.86,2.89-8.75,4.36-3.14,1.6-8.1,5.75-11.2,6.08l-30.27-3.71c-.29-1.5.71-1.79,1.72-2.39,1.75-1.04,14.47-6.32,16.08-6.42,2.63-.16,6.18,1.21,8.82,1.31,7.87.29,15.8-.36,23.6.77Z"/>
      </g>
    </g>
  </g>
</svg>